<svg version="1.1" xmlns="http://www.w3.org/2000/svg" viewBox="0 0 647.9722089027528 220.24255577421678" width="647.9722089027528" height="220.24255577421678">
  <!-- svg-source:excalidraw -->

  <defs>
    <style>
      @font-face {
        font-family: "Virgil";
        src: url("https://excalidraw.com/Virgil.woff2");
      }
      @font-face {
        font-family: "Cascadia";
        src: url("https://excalidraw.com/Cascadia.woff2");
      }
    </style>
  </defs>
  <rect x="0" y="0" width="647.9722089027528" height="220.24255577421678" fill="#ffffff"></rect><g stroke-linecap="round" transform="translate(10 20.11202159929104) rotate(0 76 94)"><path d="M0.12 0.16 C56.54 -0.29, 114.33 -1.3, 150.13 1.49 M0.83 0.25 C52.92 -1.47, 107.56 -0.38, 152.79 0.95 M152.71 -1.77 C151.8 68.13, 153.91 139.35, 151.75 187.84 M152.42 -0.7 C150.12 66.77, 150.66 133.15, 151.59 188.01 M150.63 189.99 C100.67 190.65, 53.08 189.23, -1.54 189.79 M152.79 188.12 C111.09 189.58, 70.83 189.52, 0.54 188.76 M-1.21 186.26 C-0.64 129.55, 1.07 71.23, 1.33 0.22 M0.68 188.92 C-1.6 116.33, -1.21 45.85, 0.27 0.69" stroke="#000000" stroke-width="1" fill="none"></path></g><g transform="translate(15 101.61202159929104) rotate(0 71 12.5)"><text x="71" y="18" font-family="Virgil, Segoe UI Emoji" font-size="20px" fill="#000000" text-anchor="middle" style="white-space: pre;" direction="ltr">Browser</text></g><g stroke-linecap="round" transform="translate(496.97220890275275 21.242555774216783) rotate(0 70.5 94.5)"><path d="M-1.37 1.29 C50.39 -0.65, 97.42 -1.11, 142.28 0.96 M0.21 0.16 C53.37 -0.11, 106.52 0.14, 141.69 -0.7 M140.13 -0.26 C140.9 65.73, 140.93 133.21, 141.07 190.35 M140.92 -0.6 C140.5 57, 141.04 115.77, 140.95 189.1 M140.61 190.69 C89.75 189.32, 42.16 191.18, -0.31 187.38 M141.83 188.05 C87.5 189.13, 35.31 188.64, -0.12 188.22 M-0.42 190.92 C-0.8 146.99, -2.15 102.4, 0.77 0.98 M-0.59 189.56 C0.03 137.96, 0.7 87.05, -0.15 0.86" stroke="#000000" stroke-width="1" fill="none"></path></g><g transform="translate(501.97220890275275 103.24255577421678) rotate(0 65.5 12.5)"><text x="65.5" y="18" font-family="Virgil, Segoe UI Emoji" font-size="20px" fill="#000000" text-anchor="middle" style="white-space: pre;" direction="ltr">Vite</text></g><g stroke-linecap="round"><g transform="translate(185.46685142719798 48.593777777764444) rotate(0 144.80275981680677 1.0429848509340047)"><path d="M0.93 0.44 C49.18 0.82, 241.63 2.22, 289.65 2.47 M-0.04 -0.38 C48.02 -0.32, 240.02 0.85, 288.6 0.88" stroke="#000000" stroke-width="1" fill="none"></path></g><g transform="translate(185.46685142719798 48.593777777764444) rotate(0 144.80275981680677 1.0429848509340047)"><path d="M29.92 -9.92 C22.14 -7.64, 12.42 -4.3, 0.43 1.23 M28.21 -10.35 C22.43 -7.47, 15.64 -3.58, 1.89 0.98" stroke="#000000" stroke-width="1" fill="none"></path></g><g transform="translate(185.46685142719798 48.593777777764444) rotate(0 144.80275981680677 1.0429848509340047)"><path d="M29.77 10.6 C22.01 6.5, 12.33 3.47, 0.43 1.23 M28.06 10.17 C22.5 7.87, 15.74 6.57, 1.89 0.98" stroke="#000000" stroke-width="1" fill="none"></path></g><g transform="translate(185.46685142719798 48.593777777764444) rotate(0 144.80275981680677 1.0429848509340047)"><path d="M261.1 10.74 C270.86 6.3, 278.69 3.36, 288.11 1.68 M259.39 10.31 C268.06 7.6, 275.54 6.38, 289.56 1.43" stroke="#000000" stroke-width="1" fill="none"></path></g><g transform="translate(185.46685142719798 48.593777777764444) rotate(0 144.80275981680677 1.0429848509340047)"><path d="M261.18 -9.78 C270.93 -7.84, 278.75 -4.4, 288.11 1.68 M259.47 -10.21 C267.94 -7.74, 275.4 -3.77, 289.56 1.43" stroke="#000000" stroke-width="1" fill="none"></path></g></g><g stroke-linecap="round"><g transform="translate(185.60990001411233 121.71523289039033) rotate(0 144.1270380142443 -0.005286696176483474)"><path d="M-0.06 -0.51 C48.41 -0.07, 241.37 1.42, 289.8 1.82 M-1.55 -1.83 C46.84 -1.66, 240.22 -0.24, 288.84 0.05" stroke="#000000" stroke-width="1" fill="none"></path></g><g transform="translate(185.60990001411233 121.71523289039033) rotate(0 144.1270380142443 -0.005286696176483474)"><path d="M27.36 -10.59 C23.12 -7.18, 17.04 -6.4, -1.99 -1.76 M27.76 -11.32 C23.41 -8.78, 17.2 -6.98, 0.63 -1.02" stroke="#000000" stroke-width="1" fill="none"></path></g><g transform="translate(185.60990001411233 121.71523289039033) rotate(0 144.1270380142443 -0.005286696176483474)"><path d="M27.2 9.93 C23.14 8.88, 17.09 5.18, -1.99 -1.76 M27.6 9.21 C23.33 7.57, 17.15 5.19, 0.63 -1.02" stroke="#000000" stroke-width="1" fill="none"></path></g><g transform="translate(185.60990001411233 121.71523289039033) rotate(0 144.1270380142443 -0.005286696176483474)"><path d="M259.73 10.08 C267.94 9.14, 274.16 5.54, 286.91 -1.19 M260.13 9.35 C267.33 8.15, 272.61 5.86, 289.53 -0.45" stroke="#000000" stroke-width="1" fill="none"></path></g><g transform="translate(185.60990001411233 121.71523289039033) rotate(0 144.1270380142443 -0.005286696176483474)"><path d="M259.86 -10.44 C267.9 -6.91, 274.1 -6.05, 286.91 -1.19 M260.27 -11.17 C267.39 -8.2, 272.64 -6.31, 289.53 -0.45" stroke="#000000" stroke-width="1" fill="none"></path></g></g><g stroke-linecap="round"><g transform="translate(185.60990001411233 196.90342899253181) rotate(0 145.12043491260334 0.31894422964748514)"><path d="M-0.84 -0.16 C47.45 0.22, 240.49 1.78, 288.87 1.93 M0.91 -1.29 C49.65 -1.18, 243.15 -0.13, 291.08 0.42" stroke="#000000" stroke-width="1" fill="none"></path></g><g transform="translate(185.60990001411233 196.90342899253181) rotate(0 145.12043491260334 0.31894422964748514)"><path d="M27.16 -11.8 C22.95 -8.72, 14.52 -5.77, -1.9 -0.78 M26.6 -9.38 C20.11 -7.86, 12.53 -4.53, -1.71 0" stroke="#000000" stroke-width="1" fill="none"></path></g><g transform="translate(185.60990001411233 196.90342899253181) rotate(0 145.12043491260334 0.31894422964748514)"><path d="M27 8.72 C22.89 7.17, 14.49 5.48, -1.9 -0.78 M26.44 11.14 C20.2 7.02, 12.66 4.7, -1.71 0" stroke="#000000" stroke-width="1" fill="none"></path></g><g transform="translate(185.60990001411233 196.90342899253181) rotate(0 145.12043491260334 0.31894422964748514)"><path d="M262.55 8.86 C271.18 7.8, 275.52 6.21, 290.02 -0.2 M261.99 11.28 C271.24 7.66, 279.21 5.47, 290.22 0.58" stroke="#000000" stroke-width="1" fill="none"></path></g><g transform="translate(185.60990001411233 196.90342899253181) rotate(0 145.12043491260334 0.31894422964748514)"><path d="M262.71 -11.66 C271.25 -8.08, 275.55 -5.03, 290.02 -0.2 M262.15 -9.24 C271.16 -7.22, 279.09 -3.77, 290.22 0.58" stroke="#000000" stroke-width="1" fill="none"></path></g></g><g transform="translate(236.63382283488636 148.05532555197385) rotate(0 96 12.5)"><text x="0" y="18" font-family="Virgil, Segoe UI Emoji" font-size="20px" fill="#000000" text-anchor="start" style="white-space: pre;" direction="ltr">WebSocket for HMR</text></g><g transform="translate(314.8087780845043 10) rotate(0 27.5 12.5)"><text x="0" y="18" font-family="Virgil, Segoe UI Emoji" font-size="20px" fill="#000000" text-anchor="start" style="white-space: pre;" direction="ltr">HTML</text></g><g transform="translate(286.68103004857664 80.20010375976562) rotate(0 46.50000000000006 12.5)"><text x="0" y="18" font-family="Virgil, Segoe UI Emoji" font-size="20px" fill="#000000" text-anchor="start" style="white-space: pre;" direction="ltr">JS / CSS</text></g></svg>
