<svg version="1.1" xmlns="http://www.w3.org/2000/svg" viewBox="0 0 724.5999145507812 214.50006103515625" width="724.5999145507812" height="214.50006103515625">
  <!-- svg-source:excalidraw -->

  <defs>
    <style>
      @font-face {
        font-family: "Virgil";
        src: url("https://excalidraw.com/Virgil.woff2");
      }
      @font-face {
        font-family: "Cascadia";
        src: url("https://excalidraw.com/Cascadia.woff2");
      }
    </style>
  </defs>
  <rect x="0" y="0" width="724.5999145507812" height="214.50006103515625" fill="#ffffff"></rect><g stroke-linecap="round" transform="translate(10 16.50006103515625) rotate(0 76 94)"><path d="M0.12 0.16 C56.54 -0.29, 114.33 -1.3, 150.13 1.49 M0.83 0.25 C52.92 -1.47, 107.56 -0.38, 152.79 0.95 M152.71 -1.77 C151.8 68.13, 153.91 139.35, 151.75 187.84 M152.42 -0.7 C150.12 66.77, 150.66 133.15, 151.59 188.01 M150.63 189.99 C100.67 190.65, 53.08 189.23, -1.54 189.79 M152.79 188.12 C111.09 189.58, 70.83 189.52, 0.54 188.76 M-1.21 186.26 C-0.64 129.55, 1.07 71.23, 1.33 0.22 M0.68 188.92 C-1.6 116.33, -1.21 45.85, 0.27 0.69" stroke="#000000" stroke-width="1" fill="none"></path></g><g transform="translate(15 98.00006103515625) rotate(0 71 12.5)"><text x="71" y="18" font-family="Virgil, Segoe UI Emoji" font-size="20px" fill="#000000" text-anchor="middle" style="white-space: pre;" direction="ltr">Browser</text></g><g stroke-linecap="round" transform="translate(495.59991455078125 12.50006103515625) rotate(0 109.5 94.5)"><path d="M-1.19 1.12 C77.7 -0.38, 152.48 -0.77, 220.11 0.83 M0.18 0.14 C83.06 -0.13, 165.92 0.08, 219.6 -0.61 M218.13 -0.26 C218.9 65.73, 218.93 133.21, 219.07 190.35 M218.92 -0.6 C218.5 57, 219.04 115.77, 218.95 189.1 M218.66 190.47 C140.63 189.43, 65.43 191.04, -0.27 187.6 M219.72 188.17 C136.32 188.89, 54.77 188.47, -0.1 188.32 M-0.42 190.92 C-0.8 146.99, -2.15 102.4, 0.77 0.98 M-0.59 189.56 C0.03 137.96, 0.7 87.05, -0.15 0.86" stroke="#000000" stroke-width="1" fill="none"></path></g><g transform="translate(500.59991455078125 94.50006103515625) rotate(0 104.5 12.5)"><text x="104.5" y="18" font-family="Virgil, Segoe UI Emoji" font-size="20px" fill="#000000" text-anchor="middle" style="white-space: pre;" direction="ltr">Vite</text></g><g stroke-linecap="round"><g transform="translate(193.62199837707522 43.70972332427493) rotate(0 136.27280482818298 -0.7576025824239139)"><path d="M0.93 0.44 C46.34 0.35, 227.42 -0.14, 272.59 -0.37 M-0.04 -0.38 C45.18 -0.79, 225.8 -1.51, 271.55 -1.95" stroke="#000000" stroke-width="1" fill="none"></path></g><g transform="translate(193.62199837707522 43.70972332427493) rotate(0 136.27280482818298 -0.7576025824239139)"><path d="M29.82 -10.2 C22.07 -7.83, 12.38 -4.4, 0.43 1.23 M28.11 -10.64 C22.35 -7.68, 15.59 -3.72, 1.89 0.98" stroke="#000000" stroke-width="1" fill="none"></path></g><g transform="translate(193.62199837707522 43.70972332427493) rotate(0 136.27280482818298 -0.7576025824239139)"><path d="M29.87 10.32 C22.08 6.31, 12.37 3.36, 0.43 1.23 M28.16 9.89 C22.57 7.66, 15.79 6.43, 1.89 0.98" stroke="#000000" stroke-width="1" fill="none"></path></g><g transform="translate(193.62199837707522 43.70972332427493) rotate(0 136.27280482818298 -0.7576025824239139)"><path d="M244.15 8.19 C253.87 3.66, 261.67 0.64, 271.05 -1.15 M242.44 7.76 C251.08 4.98, 258.53 3.69, 272.5 -1.41" stroke="#000000" stroke-width="1" fill="none"></path></g><g transform="translate(193.62199837707522 43.70972332427493) rotate(0 136.27280482818298 -0.7576025824239139)"><path d="M244.02 -12.33 C253.8 -10.48, 261.65 -7.13, 271.05 -1.15 M242.31 -12.76 C250.81 -10.36, 258.29 -6.47, 272.5 -1.41" stroke="#000000" stroke-width="1" fill="none"></path></g></g><g stroke-linecap="round"><g transform="translate(193.81475888426485 116.60010836899181) rotate(0 135.5970830256204 -1.497484315036786)"><path d="M-0.06 -0.51 C45.56 -0.49, 227.15 -0.69, 272.74 -0.72 M-1.55 -1.83 C44 -2.08, 226 -2.35, 271.78 -2.48" stroke="#000000" stroke-width="1" fill="none"></path></g><g transform="translate(193.81475888426485 116.60010836899181) rotate(0 135.5970830256204 -1.497484315036786)"><path d="M27.27 -10.84 C23.05 -7.37, 16.98 -6.54, -1.99 -1.76 M27.67 -11.56 C23.34 -8.98, 17.14 -7.13, 0.63 -1.02" stroke="#000000" stroke-width="1" fill="none"></path></g><g transform="translate(193.81475888426485 116.60010836899181) rotate(0 135.5970830256204 -1.497484315036786)"><path d="M27.29 9.68 C23.21 8.68, 17.14 5.04, -1.99 -1.76 M27.69 8.96 C23.41 7.37, 17.21 5.05, 0.63 -1.02" stroke="#000000" stroke-width="1" fill="none"></path></g><g transform="translate(193.81475888426485 116.60010836899181) rotate(0 135.5970830256204 -1.497484315036786)"><path d="M242.76 7.79 C250.95 6.8, 257.16 3.14, 269.85 -3.73 M243.16 7.07 C250.34 5.81, 255.61 3.47, 272.47 -2.99" stroke="#000000" stroke-width="1" fill="none"></path></g><g transform="translate(193.81475888426485 116.60010836899181) rotate(0 135.5970830256204 -1.497484315036786)"><path d="M242.71 -12.73 C250.77 -9.25, 256.99 -8.44, 269.85 -3.73 M243.12 -13.45 C250.25 -10.53, 255.53 -8.7, 272.47 -2.99" stroke="#000000" stroke-width="1" fill="none"></path></g></g><g stroke-linecap="round"><g transform="translate(193.81475888426485 191.60001681625744) rotate(0 136.59047992397944 -0.948321541759725)"><path d="M-0.84 -0.16 C44.61 -0.14, 226.27 -0.01, 271.81 -0.23 M0.91 -1.29 C46.81 -1.54, 228.93 -1.93, 274.02 -1.74" stroke="#000000" stroke-width="1" fill="none"></path></g><g transform="translate(193.81475888426485 191.60001681625744) rotate(0 136.59047992397944 -0.948321541759725)"><path d="M27.08 -12.01 C22.89 -8.88, 14.47 -5.88, -1.9 -0.78 M26.53 -9.59 C20.06 -8.02, 12.5 -4.63, -1.71 0" stroke="#000000" stroke-width="1" fill="none"></path></g><g transform="translate(193.81475888426485 191.60001681625744) rotate(0 136.59047992397944 -0.948321541759725)"><path d="M27.08 8.51 C22.95 7, 14.53 5.36, -1.9 -0.78 M26.52 10.93 C20.25 6.86, 12.69 4.61, -1.71 0" stroke="#000000" stroke-width="1" fill="none"></path></g><g transform="translate(193.81475888426485 191.60001681625744) rotate(0 136.59047992397944 -0.948321541759725)"><path d="M245.56 6.91 C254.18 5.81, 258.5 4.17, 272.96 -2.36 M245.01 9.33 C254.24 5.65, 262.19 3.4, 273.16 -1.58" stroke="#000000" stroke-width="1" fill="none"></path></g><g transform="translate(193.81475888426485 191.60001681625744) rotate(0 136.59047992397944 -0.948321541759725)"><path d="M245.57 -13.61 C254.13 -10.08, 258.45 -7.08, 272.96 -2.36 M245.01 -11.19 C254.05 -9.23, 261.99 -5.83, 273.16 -1.58" stroke="#000000" stroke-width="1" fill="none"></path></g></g><g transform="translate(231.59991455078125 150.70010375976562) rotate(0 96 12.5)"><text x="0" y="18" font-family="Virgil, Segoe UI Emoji" font-size="20px" fill="#000000" text-anchor="start" style="white-space: pre;" direction="ltr">WebSocket for HMR</text></g><g transform="translate(302.4000244140625 10) rotate(0 27.5 12.5)"><text x="0" y="18" font-family="Virgil, Segoe UI Emoji" font-size="20px" fill="#000000" text-anchor="start" style="white-space: pre;" direction="ltr">HTML</text></g><g transform="translate(284.70001220703125 80.20010375976562) rotate(0 46.5 12.5)"><text x="0" y="18" font-family="Virgil, Segoe UI Emoji" font-size="20px" fill="#000000" text-anchor="start" style="white-space: pre;" direction="ltr">JS / CSS</text></g></svg>
