<svg version="1.1" xmlns="http://www.w3.org/2000/svg" viewBox="0 0 826.3986994587049 222.68686046537914" width="826.3986994587049" height="222.68686046537914">
  <!-- svg-source:excalidraw -->

  <defs>
    <style>
      @font-face {
        font-family: "Virgil";
        src: url("https://excalidraw.com/Virgil.woff2");
      }
      @font-face {
        font-family: "Cascadia";
        src: url("https://excalidraw.com/Cascadia.woff2");
      }
    </style>
  </defs>
  <rect x="0" y="0" width="826.3986994587049" height="222.68686046537914" fill="#ffffff"></rect><g stroke-linecap="round" transform="translate(10 16.50006103515625) rotate(0 76 94)"><path d="M-0.38 0.27 C36.46 -1.34, 72.39 1.47, 153.76 -0.05 M-0.49 -0.52 C59.76 0.67, 120.73 0.48, 152.75 -0.52 M153.17 1.91 C152 49.99, 154.55 98.3, 152.7 187.8 M151.79 -0.14 C153.52 60.01, 153.37 118.77, 151.81 188.13 M153.96 186.54 C119.48 187.41, 90.09 186.51, -1.85 187.62 M151.7 187.62 C117.56 188.05, 85.42 187.33, -0.44 188.98 M1.48 187.98 C-0.87 147.87, 0.13 106.33, -1.58 -0.3 M0.41 187.26 C1.03 137.92, 0.67 86.35, -0.93 -0.27" stroke="#000000" stroke-width="1" fill="none"></path></g><g transform="translate(15 98.00006103515625) rotate(0 71 12.5)"><text x="71" y="18" font-family="Virgil, Segoe UI Emoji" font-size="20px" fill="#000000" text-anchor="middle" style="white-space: pre;" direction="ltr">Browser</text></g><g stroke-linecap="round" transform="translate(365.199951171875 13.300079345703125) rotate(0 78 54)"><path d="M0.66 -1.54 C45.57 1.06, 91.3 -0.25, 157.89 -0.33 M-0.19 0.39 C44.82 1.01, 88.73 0.28, 155.57 0.42 M155.2 1.66 C158.4 33.51, 157.33 63.56, 156.31 109.21 M156.38 0.66 C156 26.03, 155.58 52.08, 155.07 108.48 M154.97 108.67 C123.24 106.64, 86.52 106.48, -1.57 106.21 M155.2 108.22 C111.6 106.91, 65.35 108.4, -0.84 108.68 M0.41 108.44 C0.61 78.33, -2.38 49.4, -0.57 -0.87 M0.22 108.97 C-0.59 76.2, -1.38 43.2, -0.78 -0.9" stroke="#000000" stroke-width="1" fill="none"></path></g><g transform="translate(370.199951171875 42.300079345703125) rotate(0 73 25)"><text x="73" y="18" font-family="Virgil, Segoe UI Emoji" font-size="20px" fill="#000000" text-anchor="middle" style="white-space: pre;" direction="ltr">Custom</text><text x="73" y="43" font-family="Virgil, Segoe UI Emoji" font-size="20px" fill="#000000" text-anchor="middle" style="white-space: pre;" direction="ltr">Server</text></g><g stroke-linecap="round"><g transform="translate(180.06971335832873 39.52807885940899) rotate(0 84.92113116231303 1.63484848796071)"><path d="M-0.92 0.48 C27.51 1.01, 142.28 3.05, 170.76 3.58 M0.79 -0.31 C29.12 -0.13, 142.15 1.64, 170.22 2.01" stroke="#000000" stroke-width="1" fill="none"></path></g><g transform="translate(180.06971335832873 39.52807885940899) rotate(0 84.92113116231303 1.63484848796071)"><path d="M28.25 -8 C20.35 -6.48, 11.59 -3.71, -1.28 -0.51 M28.28 -9.07 C21.13 -7.26, 12.9 -3.89, -0.97 1.07" stroke="#000000" stroke-width="1" fill="none"></path></g><g transform="translate(180.06971335832873 39.52807885940899) rotate(0 84.92113116231303 1.63484848796071)"><path d="M27.88 12.52 C20.03 7.61, 11.39 3.95, -1.28 -0.51 M27.91 11.45 C20.89 8.16, 12.76 6.43, -0.97 1.07" stroke="#000000" stroke-width="1" fill="none"></path></g><g transform="translate(180.06971335832873 39.52807885940899) rotate(0 84.92113116231303 1.63484848796071)"><path d="M142.68 13.14 C152.48 8.95, 161.49 5.58, 169.86 1.03 M142.71 12.07 C149.69 8.78, 155.55 7.28, 170.17 2.6" stroke="#000000" stroke-width="1" fill="none"></path></g><g transform="translate(180.06971335832873 39.52807885940899) rotate(0 84.92113116231303 1.63484848796071)"><path d="M142.98 -7.38 C152.75 -5.14, 161.67 -2.09, 169.86 1.03 M143.01 -8.45 C149.87 -6.64, 155.66 -3.04, 170.17 2.6" stroke="#000000" stroke-width="1" fill="none"></path></g></g><g stroke-linecap="round"><g transform="translate(180.17986221958006 109.42743276309261) rotate(0 84.10956151348091 0.5235010980254629)"><path d="M0.48 0.76 C28.57 0.88, 140.86 -0.04, 168.95 -0.24 M-0.73 0.12 C27.26 0.51, 140.29 1.17, 168.55 1.28" stroke="#000000" stroke-width="1" fill="none"></path></g><g transform="translate(180.17986221958006 109.42743276309261) rotate(0 84.10956151348091 0.5235010980254629)"><path d="M29.89 -7.9 C19.12 -4.18, 9.46 -2.96, -0.51 -0.27 M28.82 -8.9 C20.23 -6.92, 13.28 -3.62, 1.07 1.72" stroke="#000000" stroke-width="1" fill="none"></path></g><g transform="translate(180.17986221958006 109.42743276309261) rotate(0 84.10956151348091 0.5235010980254629)"><path d="M30 12.63 C19.35 9.5, 9.65 3.89, -0.51 -0.27 M28.93 11.62 C20.23 7.84, 13.25 5.38, 1.07 1.72" stroke="#000000" stroke-width="1" fill="none"></path></g><g transform="translate(180.17986221958006 109.42743276309261) rotate(0 84.10956151348091 0.5235010980254629)"><path d="M141.58 13.15 C149.75 9.8, 158.87 4.19, 167.57 0.25 M140.51 12.15 C147.67 7.9, 156.55 5.44, 169.14 2.24" stroke="#000000" stroke-width="1" fill="none"></path></g><g transform="translate(180.17986221958006 109.42743276309261) rotate(0 84.10956151348091 0.5235010980254629)"><path d="M141.68 -7.37 C149.66 -3.88, 158.75 -2.66, 167.57 0.25 M140.62 -8.37 C147.83 -6.86, 156.68 -3.56, 169.14 2.24" stroke="#000000" stroke-width="1" fill="none"></path></g></g><g stroke-linecap="round"><g transform="translate(176.68315565062733 189.94793133725284) rotate(0 239.93034814330815 -2.105935278255629)"><path d="M0.76 1.05 C80.94 0.35, 400.29 -2.71, 480.16 -3.74 M-0.3 0.56 C79.8 -0.49, 399.29 -4.52, 479.19 -5.26" stroke="#000000" stroke-width="1" fill="none"></path></g><g transform="translate(176.68315565062733 189.94793133725284) rotate(0 239.93034814330815 -2.105935278255629)"><path d="M30.61 -9.53 C24.51 -7.28, 16 -5.59, -0.27 0.67 M29.6 -10 C18.98 -5.43, 9.82 -1.68, 1.72 0.66" stroke="#000000" stroke-width="1" fill="none"></path></g><g transform="translate(176.68315565062733 189.94793133725284) rotate(0 239.93034814330815 -2.105935278255629)"><path d="M30.81 10.99 C24.59 8.66, 16.03 5.78, -0.27 0.67 M29.8 10.52 C18.94 8.13, 9.71 4.9, 1.72 0.66" stroke="#000000" stroke-width="1" fill="none"></path></g><g transform="translate(176.68315565062733 189.94793133725284) rotate(0 239.93034814330815 -2.105935278255629)"><path d="M452.88 5.26 C459.23 2.44, 463.25 -0.57, 478.16 -5.65 M451.87 4.79 C460.13 2.09, 470.04 -1.34, 480.15 -5.66" stroke="#000000" stroke-width="1" fill="none"></path></g><g transform="translate(176.68315565062733 189.94793133725284) rotate(0 239.93034814330815 -2.105935278255629)"><path d="M452.65 -15.26 C459.13 -13.5, 463.2 -11.94, 478.16 -5.65 M451.64 -15.73 C460.15 -11.47, 470.14 -7.93, 480.15 -5.66" stroke="#000000" stroke-width="1" fill="none"></path></g></g><g transform="translate(330.37630545038746 153.01853854038973) rotate(0 96 12.5)"><text x="0" y="18" font-family="Virgil, Segoe UI Emoji" font-size="20px" fill="#000000" text-anchor="start" style="white-space: pre;" direction="ltr">WebSocket for HMR</text></g><g transform="translate(243.20001220703125 10) rotate(0 27.5 12.5)"><text x="0" y="18" font-family="Virgil, Segoe UI Emoji" font-size="20px" fill="#000000" text-anchor="start" style="white-space: pre;" direction="ltr">HTML</text></g><g transform="translate(219.9000244140625 73.80014038085938) rotate(0 46.5 12.5)"><text x="0" y="18" font-family="Virgil, Segoe UI Emoji" font-size="20px" fill="#000000" text-anchor="start" style="white-space: pre;" direction="ltr">JS / CSS</text></g><g stroke-linecap="round" transform="translate(670.3986994587049 10.68686046537914) rotate(0 73 101)"><path d="M-0.6 -1.43 C30.94 -0.51, 60.6 0.7, 147.99 -1.06 M0.46 -0.18 C34.25 -0.74, 68.92 -0.71, 145.09 0.14 M146.65 -0.52 C143.29 78.27, 143.47 160.85, 146.99 202.26 M146.56 0.44 C148.08 75.36, 148.4 152.18, 145.95 201.36 M144.5 201.69 C106.04 201.26, 65.39 203.38, 1.01 201.36 M146.29 202.41 C115.29 202.64, 86.35 202.29, 0.48 201.59 M-1.19 201.46 C-1.07 148.01, 0.32 97.37, 0.88 -1.76 M-0.32 202.45 C1.29 145.26, 1.42 88.29, -0.32 0.74" stroke="#000000" stroke-width="1" fill="none"></path></g><g transform="translate(675.3986994587049 99.18686046537914) rotate(0 68 12.5)"><text x="68" y="18" font-family="Virgil, Segoe UI Emoji" font-size="20px" fill="#000000" text-anchor="middle" style="white-space: pre;" direction="ltr">Vite</text></g><g stroke-linecap="round"><g transform="translate(536.5976015072315 66.73988428341761) rotate(0 60.93511429057344 -1.0317876879436199)"><path d="M-0.9 -0.06 C19.45 -0.38, 102.26 -1.64, 122.77 -2.01 M0.82 -1.13 C21.04 -1.31, 102.17 -0.84, 122.29 -0.91" stroke="#000000" stroke-width="1" fill="none"></path></g><g transform="translate(536.5976015072315 66.73988428341761) rotate(0 60.93511429057344 -1.0317876879436199)"><path d="M27.03 -9.28 C15.76 -6.73, 5.35 -2.22, -0.96 0.14 M27.42 -10.7 C18.75 -6.8, 10.07 -5.31, -1.27 -0.65" stroke="#000000" stroke-width="1" fill="none"></path></g><g transform="translate(536.5976015072315 66.73988428341761) rotate(0 60.93511429057344 -1.0317876879436199)"><path d="M27.35 11.24 C15.98 6.49, 5.46 3.71, -0.96 0.14 M27.74 9.82 C19.13 7.57, 10.35 2.9, -1.27 -0.65" stroke="#000000" stroke-width="1" fill="none"></path></g><g transform="translate(536.5976015072315 66.73988428341761) rotate(0 60.93511429057344 -1.0317876879436199)"><path d="M93.98 10.78 C102.72 6.32, 112.31 3.4, 122.23 -0.7 M94.38 9.36 C102.72 7.37, 110.91 2.59, 121.92 -1.49" stroke="#000000" stroke-width="1" fill="none"></path></g><g transform="translate(536.5976015072315 66.73988428341761) rotate(0 60.93511429057344 -1.0317876879436199)"><path d="M94.02 -9.74 C102.73 -6.91, 112.3 -2.53, 122.23 -0.7 M94.41 -11.16 C102.59 -7, 110.77 -5.63, 121.92 -1.49" stroke="#000000" stroke-width="1" fill="none"></path></g></g><g transform="translate(560.4440421200775 23.583404541015625) rotate(0 35 12.5)"><text x="0" y="18" font-family="Virgil, Segoe UI Emoji" font-size="20px" fill="#000000" text-anchor="start" style="white-space: pre;" direction="ltr">(by JS)</text></g></svg>
