<svg version="1.1" xmlns="http://www.w3.org/2000/svg" viewBox="0 0 883.6999206542969 224.44998168945312" width="883.6999206542969" height="224.44998168945312">
  <!-- svg-source:excalidraw -->

  <defs>
    <style>
      @font-face {
        font-family: "Virgil";
        src: url("https://excalidraw.com/Virgil.woff2");
      }
      @font-face {
        font-family: "Cascadia";
        src: url("https://excalidraw.com/Cascadia.woff2");
      }
    </style>
  </defs>
  <rect x="0" y="0" width="883.6999206542969" height="224.44998168945312" fill="#ffffff"></rect><g stroke-linecap="round" transform="translate(10 16.50006103515625) rotate(0 76 94)"><path d="M-0.38 0.27 C36.46 -1.34, 72.39 1.47, 153.76 -0.05 M-0.49 -0.52 C59.76 0.67, 120.73 0.48, 152.75 -0.52 M153.17 1.91 C152 49.99, 154.55 98.3, 152.7 187.8 M151.79 -0.14 C153.52 60.01, 153.37 118.77, 151.81 188.13 M153.96 186.54 C119.48 187.41, 90.09 186.51, -1.85 187.62 M151.7 187.62 C117.56 188.05, 85.42 187.33, -0.44 188.98 M1.48 187.98 C-0.87 147.87, 0.13 106.33, -1.58 -0.3 M0.41 187.26 C1.03 137.92, 0.67 86.35, -0.93 -0.27" stroke="#000000" stroke-width="1" fill="none"></path></g><g transform="translate(15 98.00006103515625) rotate(0 71 12.5)"><text x="71" y="18" font-family="Virgil, Segoe UI Emoji" font-size="20px" fill="#000000" text-anchor="middle" style="white-space: pre;" direction="ltr">Browser</text></g><g stroke-linecap="round" transform="translate(365.199951171875 13.300079345703125) rotate(0 109.5 54)"><path d="M0.58 -1.33 C63.55 0.85, 127.23 -0.29, 220.64 -0.29 M-0.17 0.34 C62.48 1.16, 124.16 0.53, 218.63 0.37 M218.2 1.66 C221.4 33.51, 220.33 63.56, 219.31 109.21 M219.38 0.66 C219 26.03, 218.58 52.08, 218.07 108.48 M218.1 108.58 C172.45 106.42, 122.45 106.28, -1.37 106.45 M218.3 108.19 C156.29 106.84, 91.97 108.14, -0.73 108.59 M0.41 108.44 C0.61 78.33, -2.38 49.4, -0.57 -0.87 M0.22 108.97 C-0.59 76.2, -1.38 43.2, -0.78 -0.9" stroke="#000000" stroke-width="1" fill="none"></path></g><g transform="translate(370.199951171875 42.300079345703125) rotate(0 104.5 25)"><text x="104.5" y="18" font-family="Virgil, Segoe UI Emoji" font-size="20px" fill="#000000" text-anchor="middle" style="white-space: pre;" direction="ltr">Custom</text><text x="104.5" y="43" font-family="Virgil, Segoe UI Emoji" font-size="20px" fill="#000000" text-anchor="middle" style="white-space: pre;" direction="ltr">Server</text></g><g stroke-linecap="round"><g transform="translate(180.06971335832873 39.45792418710096) rotate(0 84.92113116231303 1.48003119472952)"><path d="M-0.92 0.48 C27.51 0.96, 142.28 2.79, 170.76 3.27 M0.79 -0.31 C29.12 -0.18, 142.15 1.38, 170.22 1.7" stroke="#000000" stroke-width="1" fill="none"></path></g><g transform="translate(180.06971335832873 39.45792418710096) rotate(0 84.92113116231303 1.48003119472952)"><path d="M28.23 -8.05 C20.34 -6.52, 11.59 -3.73, -1.28 -0.51 M28.26 -9.12 C21.12 -7.3, 12.89 -3.92, -0.97 1.07" stroke="#000000" stroke-width="1" fill="none"></path></g><g transform="translate(180.06971335832873 39.45792418710096) rotate(0 84.92113116231303 1.48003119472952)"><path d="M27.9 12.47 C20.04 7.58, 11.39 3.93, -1.28 -0.51 M27.93 11.4 C20.9 8.12, 12.77 6.4, -0.97 1.07" stroke="#000000" stroke-width="1" fill="none"></path></g><g transform="translate(180.06971335832873 39.45792418710096) rotate(0 84.92113116231303 1.48003119472952)"><path d="M142.7 12.88 C152.49 8.68, 161.5 5.29, 169.86 0.72 M142.73 11.81 C149.7 8.51, 155.56 7, 170.17 2.29" stroke="#000000" stroke-width="1" fill="none"></path></g><g transform="translate(180.06971335832873 39.45792418710096) rotate(0 84.92113116231303 1.48003119472952)"><path d="M142.96 -7.64 C152.74 -5.42, 161.66 -2.38, 169.86 0.72 M142.99 -8.71 C149.86 -6.91, 155.65 -3.33, 170.17 2.29" stroke="#000000" stroke-width="1" fill="none"></path></g></g><g stroke-linecap="round"><g transform="translate(180.17986221957995 109.44273670890334) rotate(0 84.10956151348097 0.548658542533758)"><path d="M0.48 0.76 C28.57 0.88, 140.86 -0.02, 168.95 -0.21 M-0.73 0.12 C27.26 0.52, 140.29 1.19, 168.55 1.31" stroke="#000000" stroke-width="1" fill="none"></path></g><g transform="translate(180.17986221957995 109.44273670890334) rotate(0 84.10956151348097 0.548658542533758)"><path d="M29.89 -7.89 C19.12 -4.18, 9.46 -2.96, -0.51 -0.27 M28.82 -8.9 C20.24 -6.92, 13.28 -3.62, 1.07 1.72" stroke="#000000" stroke-width="1" fill="none"></path></g><g transform="translate(180.17986221957995 109.44273670890334) rotate(0 84.10956151348097 0.548658542533758)"><path d="M29.99 12.63 C19.35 9.51, 9.65 3.89, -0.51 -0.27 M28.93 11.62 C20.23 7.84, 13.25 5.38, 1.07 1.72" stroke="#000000" stroke-width="1" fill="none"></path></g><g transform="translate(180.17986221957995 109.44273670890334) rotate(0 84.10956151348097 0.548658542533758)"><path d="M141.58 13.17 C149.75 9.83, 158.87 4.21, 167.57 0.28 M140.51 12.17 C147.67 7.92, 156.55 5.46, 169.14 2.26" stroke="#000000" stroke-width="1" fill="none"></path></g><g transform="translate(180.17986221957995 109.44273670890334) rotate(0 84.10956151348097 0.548658542533758)"><path d="M141.69 -7.35 C149.66 -3.86, 158.75 -2.64, 167.57 0.28 M140.62 -8.35 C147.83 -6.84, 156.68 -3.54, 169.14 2.26" stroke="#000000" stroke-width="1" fill="none"></path></g></g><g stroke-linecap="round"><g transform="translate(176.68315565062733 190.03471788629122) rotate(0 268.58095874110415 -1.4991078438874865)"><path d="M0.76 1.05 C90.49 0.55, 448.04 -1.7, 537.46 -2.52 M-0.3 0.56 C89.35 -0.29, 447.04 -3.51, 536.5 -4.05" stroke="#000000" stroke-width="1" fill="none"></path></g><g transform="translate(176.68315565062733 190.03471788629122) rotate(0 268.58095874110415 -1.4991078438874865)"><path d="M30.64 -9.43 C24.54 -7.21, 16.02 -5.54, -0.27 0.67 M29.63 -9.91 C19 -5.36, 9.83 -1.65, 1.72 0.66" stroke="#000000" stroke-width="1" fill="none"></path></g><g transform="translate(176.68315565062733 190.03471788629122) rotate(0 268.58095874110415 -1.4991078438874865)"><path d="M30.77 11.09 C24.56 8.73, 16.01 5.83, -0.27 0.67 M29.77 10.61 C18.91 8.19, 9.7 4.93, 1.72 0.66" stroke="#000000" stroke-width="1" fill="none"></path></g><g transform="translate(176.68315565062733 190.03471788629122) rotate(0 268.58095874110415 -1.4991078438874865)"><path d="M510.14 6.38 C516.5 3.58, 520.53 0.59, 535.47 -4.44 M509.13 5.91 C517.41 3.23, 527.33 -0.16, 537.45 -4.45" stroke="#000000" stroke-width="1" fill="none"></path></g><g transform="translate(176.68315565062733 190.03471788629122) rotate(0 268.58095874110415 -1.4991078438874865)"><path d="M509.98 -14.14 C516.46 -12.37, 520.52 -10.78, 535.47 -4.44 M508.97 -14.62 C517.48 -10.32, 527.45 -6.75, 537.45 -4.45" stroke="#000000" stroke-width="1" fill="none"></path></g></g><g transform="translate(343.5997314453125 153.90011596679688) rotate(0 96 12.5)"><text x="0" y="18" font-family="Virgil, Segoe UI Emoji" font-size="20px" fill="#000000" text-anchor="start" style="white-space: pre;" direction="ltr">WebSocket for HMR</text></g><g transform="translate(243.20001220703125 10) rotate(0 27.5 12.5)"><text x="0" y="18" font-family="Virgil, Segoe UI Emoji" font-size="20px" fill="#000000" text-anchor="start" style="white-space: pre;" direction="ltr">HTML</text></g><g transform="translate(219.9000244140625 73.80014038085938) rotate(0 46.5 12.5)"><text x="0" y="18" font-family="Virgil, Segoe UI Emoji" font-size="20px" fill="#000000" text-anchor="start" style="white-space: pre;" direction="ltr">JS / CSS</text></g><g stroke-linecap="round" transform="translate(727.6999206542969 12.449981689453125) rotate(0 73 101)"><path d="M-0.6 -1.43 C30.94 -0.51, 60.6 0.7, 147.99 -1.06 M0.46 -0.18 C34.25 -0.74, 68.92 -0.71, 145.09 0.14 M146.65 -0.52 C143.29 78.27, 143.47 160.85, 146.99 202.26 M146.56 0.44 C148.08 75.36, 148.4 152.18, 145.95 201.36 M144.5 201.69 C106.04 201.26, 65.39 203.38, 1.01 201.36 M146.29 202.41 C115.29 202.64, 86.35 202.29, 0.48 201.59 M-1.19 201.46 C-1.07 148.01, 0.32 97.37, 0.88 -1.76 M-0.32 202.45 C1.29 145.26, 1.42 88.29, -0.32 0.74" stroke="#000000" stroke-width="1" fill="none"></path></g><g transform="translate(732.6999206542969 100.94998168945312) rotate(0 68 12.5)"><text x="68" y="18" font-family="Virgil, Segoe UI Emoji" font-size="20px" fill="#000000" text-anchor="middle" style="white-space: pre;" direction="ltr">Vite</text></g><g stroke-linecap="round"><g transform="translate(599.5976015072315 67.65533654647334) rotate(0 58.08572488836944 -0.7292806824157765)"><path d="M-0.9 -0.06 C18.5 -0.27, 97.52 -1.13, 117.07 -1.4 M0.82 -1.13 C20.09 -1.21, 97.43 -0.34, 116.59 -0.3" stroke="#000000" stroke-width="1" fill="none"></path></g><g transform="translate(599.5976015072315 67.65533654647334) rotate(0 58.08572488836944 -0.7292806824157765)"><path d="M27.08 -9.16 C15.79 -6.65, 5.37 -2.19, -0.96 0.14 M27.47 -10.58 C18.78 -6.71, 10.09 -5.26, -1.27 -0.65" stroke="#000000" stroke-width="1" fill="none"></path></g><g transform="translate(599.5976015072315 67.65533654647334) rotate(0 58.08572488836944 -0.7292806824157765)"><path d="M27.3 11.36 C15.95 6.57, 5.45 3.74, -0.96 0.14 M27.7 9.94 C19.1 7.65, 10.33 2.95, -1.27 -0.65" stroke="#000000" stroke-width="1" fill="none"></path></g><g transform="translate(599.5976015072315 67.65533654647334) rotate(0 58.08572488836944 -0.7292806824157765)"><path d="M88.23 11.24 C96.99 6.83, 106.59 3.96, 116.53 -0.1 M88.62 9.82 C96.99 7.87, 105.19 3.13, 116.22 -0.89" stroke="#000000" stroke-width="1" fill="none"></path></g><g transform="translate(599.5976015072315 67.65533654647334) rotate(0 58.08572488836944 -0.7292806824157765)"><path d="M88.38 -9.28 C97.07 -6.4, 106.62 -1.97, 116.53 -0.1 M88.77 -10.7 C96.93 -6.5, 105.09 -5.08, 116.22 -0.89" stroke="#000000" stroke-width="1" fill="none"></path></g></g><g transform="translate(621.2715730212981 23.583404541015625) rotate(0 35 12.5)"><text x="0" y="18" font-family="Virgil, Segoe UI Emoji" font-size="20px" fill="#000000" text-anchor="start" style="white-space: pre;" direction="ltr">(by JS)</text></g></svg>
