<svg version="1.1" xmlns="http://www.w3.org/2000/svg" viewBox="0 0 871.0717591785248 217.04551170025798" width="871.0717591785248" height="217.04551170025798">
  <!-- svg-source:excalidraw -->

  <defs>
    <style>
      @font-face {
        font-family: "Virgil";
        src: url("https://excalidraw.com/Virgil.woff2");
      }
      @font-face {
        font-family: "Cascadia";
        src: url("https://excalidraw.com/Cascadia.woff2");
      }
    </style>
  </defs>
  <rect x="0" y="0" width="871.0717591785248" height="217.04551170025798" fill="#ffffff"></rect><g stroke-linecap="round" transform="translate(10 19.045511700257975) rotate(0 76 94)"><path d="M-1.26 0.88 C53.09 2.8, 102.79 2.33, 153.83 -0.23 M0.85 0.54 C53.36 -1.13, 105.75 0.26, 152.01 -0.77 M150.92 1.07 C149.6 43.53, 150.46 84.56, 150.85 187.57 M152.18 -0.94 C154.05 49.81, 153.37 100.3, 151.82 187.47 M152 187.25 C96.6 188.25, 41.8 188.1, 0.84 187.35 M152.18 188.38 C92.7 187.89, 35.08 188.76, 0.83 188.48 M-0.25 188.99 C-2.18 140.8, -3.72 93.39, 1.93 1.16 M-0.17 188.12 C-0.01 147.7, 1.32 105.75, -0.34 0.81" stroke="#000000" stroke-width="1" fill="none"></path></g><g transform="translate(15 100.54551170025798) rotate(0 71 12.5)"><text x="71" y="18" font-family="Virgil, Segoe UI Emoji" font-size="20px" fill="#000000" text-anchor="middle" style="white-space: pre;" direction="ltr">Browser</text></g><g stroke-linecap="round"><g transform="translate(183.3040925600302 55.389543091583164) rotate(0 101.87036813113718 0.3505414251999355)"><path d="M0.53 0.46 C34.74 0.6, 170.46 -0.21, 204.39 0.1 M-0.65 -0.35 C33.56 -0.04, 169.92 0.9, 203.98 1.05" stroke="#000000" stroke-width="1" fill="none"></path></g><g transform="translate(183.3040925600302 55.389543091583164) rotate(0 101.87036813113718 0.3505414251999355)"><path d="M29.45 -8.17 C20.32 -6.14, 17.59 -5.26, 1.44 -0.18 M29.57 -10.48 C20.14 -5.48, 9.95 -3.57, -0.18 -0.49" stroke="#000000" stroke-width="1" fill="none"></path></g><g transform="translate(183.3040925600302 55.389543091583164) rotate(0 101.87036813113718 0.3505414251999355)"><path d="M29.51 12.35 C20.49 9.69, 17.75 5.88, 1.44 -0.18 M29.62 10.04 C20 8.17, 9.79 3.21, -0.18 -0.49" stroke="#000000" stroke-width="1" fill="none"></path></g><g transform="translate(183.3040925600302 55.389543091583164) rotate(0 101.87036813113718 0.3505414251999355)"><path d="M176.49 12.86 C180.38 9.96, 190.54 6.18, 204.89 0.41 M176.6 10.54 C185.88 8.4, 194.56 3.47, 203.27 0.11" stroke="#000000" stroke-width="1" fill="none"></path></g><g transform="translate(183.3040925600302 55.389543091583164) rotate(0 101.87036813113718 0.3505414251999355)"><path d="M176.61 -7.66 C180.34 -5.87, 190.47 -4.97, 204.89 0.41 M176.72 -9.98 C186.13 -5.25, 194.78 -3.31, 203.27 0.11" stroke="#000000" stroke-width="1" fill="none"></path></g></g><g stroke-linecap="round"><g transform="translate(190.11650192069465 127.42132343709136) rotate(0 100.54892094255251 0.3237929969320703)"><path d="M0.46 1.03 C33.87 1.13, 166.16 1.3, 199.74 1.18 M-0.76 0.52 C33.07 0.24, 168.11 -0.72, 201.86 -0.55" stroke="#000000" stroke-width="1" fill="none"></path></g><g transform="translate(190.11650192069465 127.42132343709136) rotate(0 100.54892094255251 0.3237929969320703)"><path d="M30.37 -11.07 C23.27 -4.84, 15.1 -3.34, -0.18 1.72 M28.06 -8.42 C18.65 -5.01, 6.25 -1.8, -0.49 0.52" stroke="#000000" stroke-width="1" fill="none"></path></g><g transform="translate(190.11650192069465 127.42132343709136) rotate(0 100.54892094255251 0.3237929969320703)"><path d="M30.34 9.45 C23.16 10.82, 15 7.45, -0.18 1.72 M28.03 12.1 C18.52 7.62, 6.14 2.94, -0.49 0.52" stroke="#000000" stroke-width="1" fill="none"></path></g><g transform="translate(190.11650192069465 127.42132343709136) rotate(0 100.54892094255251 0.3237929969320703)"><path d="M175.4 7.89 C181.57 9.04, 186.77 5.67, 201.22 0.14 M173.09 10.55 C185.26 5.56, 194.54 0.87, 200.92 -1.06" stroke="#000000" stroke-width="1" fill="none"></path></g><g transform="translate(190.11650192069465 127.42132343709136) rotate(0 100.54892094255251 0.3237929969320703)"><path d="M175.36 -12.63 C181.63 -6.61, 186.84 -5.12, 201.22 0.14 M173.05 -9.98 C185.34 -7.06, 194.64 -3.86, 200.92 -1.06" stroke="#000000" stroke-width="1" fill="none"></path></g></g><g stroke-linecap="round"><g transform="translate(180.51652633475715 195.06104540254228) rotate(0 259.94067047233835 -1.5017873298779705)"><path d="M1.03 -1.12 C87.57 -1.59, 433.47 -2.06, 519.78 -2.36 M0.11 0.9 C86.51 0.08, 432.9 -2.93, 519.22 -3.91" stroke="#000000" stroke-width="1" fill="none"></path></g><g transform="translate(180.51652633475715 195.06104540254228) rotate(0 259.94067047233835 -1.5017873298779705)"><path d="M27.32 -10.2 C21.37 -7.89, 10.75 -4.74, 1.72 0.57 M29.97 -10.67 C19.31 -8.73, 8.61 -5.24, 0.52 -1.66" stroke="#000000" stroke-width="1" fill="none"></path></g><g transform="translate(180.51652633475715 195.06104540254228) rotate(0 259.94067047233835 -1.5017873298779705)"><path d="M27.37 10.32 C21.32 5.57, 10.68 1.66, 1.72 0.57 M30.02 9.85 C19.17 4.52, 8.44 0.73, 0.52 -1.66" stroke="#000000" stroke-width="1" fill="none"></path></g><g transform="translate(180.51652633475715 195.06104540254228) rotate(0 259.94067047233835 -1.5017873298779705)"><path d="M489.26 7.88 C502.59 2.53, 511.33 -1.5, 519.91 -2.21 M491.91 7.42 C501.01 2.3, 510.24 -1.61, 518.71 -4.44" stroke="#000000" stroke-width="1" fill="none"></path></g><g transform="translate(180.51652633475715 195.06104540254228) rotate(0 259.94067047233835 -1.5017873298779705)"><path d="M489.06 -12.64 C502.54 -10.93, 511.35 -7.9, 519.91 -2.21 M491.71 -13.1 C501.06 -10.95, 510.36 -7.59, 518.71 -4.44" stroke="#000000" stroke-width="1" fill="none"></path></g></g><g transform="translate(366.07938203173126 158.73675013534694) rotate(0 96.00000000000006 12.5)"><text x="0" y="18" font-family="Virgil, Segoe UI Emoji" font-size="20px" fill="#000000" text-anchor="start" style="white-space: pre;" direction="ltr">WebSocket for HMR</text></g><g transform="translate(268.1095684321582 10) rotate(0 27.5 12.5)"><text x="0" y="18" font-family="Virgil, Segoe UI Emoji" font-size="20px" fill="#000000" text-anchor="start" style="white-space: pre;" direction="ltr">HTML</text></g><g transform="translate(248.11884051898187 87.18196634826563) rotate(0 46.5 12.5)"><text x="0" y="18" font-family="Virgil, Segoe UI Emoji" font-size="20px" fill="#000000" text-anchor="start" style="white-space: pre;" direction="ltr">JS / CSS</text></g><g stroke-linecap="round" transform="translate(402.47153945196237 24.820426759666134) rotate(0 72.49999999999994 60)"><path d="M0.91 -0.64 C53.23 1.86, 106.17 1.91, 143.79 1.56 M-0.71 -0.94 C54.36 0.57, 110.28 0.79, 145.25 0.12 M144.36 1.39 C143.26 27.23, 142.43 55.23, 143.93 120.13 M145.62 -0.86 C145.66 31.41, 144.41 62.67, 144.46 120 M146.7 121.56 C110.36 119.88, 76.68 118.04, -0.05 120.39 M144.52 120.93 C89.4 120.57, 34.18 120.47, 0.07 119.01 M-1.63 119.27 C-0.17 83.13, -0.91 45.57, 1.63 1.27 M0.39 119.38 C0.27 83.97, -0.56 47.69, -0.37 -0.46" stroke="#000000" stroke-width="1" fill="none"></path></g><g transform="translate(407.47153945196226 72.32042675966613) rotate(0 67.5 12.5)"><text x="67.5" y="18" font-family="Virgil, Segoe UI Emoji" font-size="20px" fill="#000000" text-anchor="middle" style="white-space: pre;" direction="ltr">Proxy</text></g><g stroke-linecap="round" transform="translate(716.0717591785248 24.72029858583801) rotate(0 72.5 88.5)"><path d="M0.69 1.69 C42.9 2.21, 82.41 2.03, 146.57 0.03 M-0.51 -0.54 C32.94 1.05, 65.06 1.48, 144.24 -0.58 M143.95 0.36 C142.55 50.81, 143.36 98.75, 144.23 176.64 M145.88 0 C145.73 43.61, 145.57 87.51, 144.38 177.42 M144.89 177.35 C107 176.64, 67.44 178.52, 1.68 178.65 M145.05 176.87 C95.07 178.12, 44.21 177.36, 0.04 177.97 M0.99 176.65 C1.68 112.28, 3.07 51.61, -0.03 -0.68 M-0.14 176.8 C-1.66 108.89, -1.06 41.64, -0.94 -0.65" stroke="#000000" stroke-width="1" fill="none"></path></g><g transform="translate(721.0717591785248 100.72029858583801) rotate(0 67.5 12.5)"><text x="67.5" y="18" font-family="Virgil, Segoe UI Emoji" font-size="20px" fill="#000000" text-anchor="middle" style="white-space: pre;" direction="ltr">Vite</text></g><g stroke-linecap="round"><g transform="translate(560.241302684619 95.55715058904934) rotate(0 74.53250628009835 -0.7091243431541443)"><path d="M1.02 0.65 C25.91 0.24, 124.33 -1.89, 148.98 -2.07 M0.09 -0.05 C24.95 -0.36, 123.83 -0.55, 148.58 -0.91" stroke="#000000" stroke-width="1" fill="none"></path></g><g transform="translate(560.241302684619 95.55715058904934) rotate(0 74.53250628009835 -0.7091243431541443)"><path d="M30.09 -8.41 C20.33 -5.46, 15.6 -4.1, -0.51 -0.77 M29.53 -10.47 C23.43 -7.97, 16.67 -6.43, 0.8 0.33" stroke="#000000" stroke-width="1" fill="none"></path></g><g transform="translate(560.241302684619 95.55715058904934) rotate(0 74.53250628009835 -0.7091243431541443)"><path d="M30.49 12.11 C20.55 9.56, 15.72 5.42, -0.51 -0.77 M29.93 10.05 C23.86 8.33, 17.01 5.64, 0.8 0.33" stroke="#000000" stroke-width="1" fill="none"></path></g><g transform="translate(560.241302684619 95.55715058904934) rotate(0 74.53250628009835 -0.7091243431541443)"><path d="M121.55 11.3 C126.76 8.08, 137.07 3.73, 147.05 -2.33 M121 9.24 C126.55 7.67, 131.32 4.83, 148.36 -1.24" stroke="#000000" stroke-width="1" fill="none"></path></g><g transform="translate(560.241302684619 95.55715058904934) rotate(0 74.53250628009835 -0.7091243431541443)"><path d="M121.4 -9.22 C126.72 -6.94, 137.07 -5.79, 147.05 -2.33 M120.84 -11.28 C126.32 -8.62, 131.13 -7.25, 148.36 -1.24" stroke="#000000" stroke-width="1" fill="none"></path></g></g></svg>
